<svg width="197" height="100" viewBox="0 0 197 100" fill="none" xmlns="http://www.w3.org/2000/svg">
<g clip-path="url(#clip0_1_16)">
<path d="M169 0H29V100H169V0Z" fill="white"/>
<path d="M54 73.8657H56.0037V69.8758C56.0037 69.1652 56.0037 68.2886 56.3666 67.7751C56.7276 67.2168 57.3761 67.0353 57.7381 67.0353C59.4262 67.0353 59.4262 69.0311 59.4262 69.7244V73.8657H61.4289V69.3322C61.4289 68.6809 61.4289 67.277 60.6613 66.3557C59.9691 65.5083 58.8677 65.189 58.1456 65.189C56.8786 65.189 56.1856 65.8868 55.8545 66.2043V65.4764H54V73.8657Z" fill="black"/>
<path fill-rule="evenodd" clip-rule="evenodd" d="M70.5394 70.5716C70.5967 70.3007 70.6595 69.9522 70.6595 69.56C70.6595 67.4455 68.986 65.1441 66.3338 65.1441C63.7563 65.1441 61.9336 67.3233 61.9336 69.695C61.9336 72.1424 63.8627 74.1392 66.3493 74.1392C68.3084 74.1392 69.9046 72.7353 70.3875 71.2229H68.2765C67.9009 71.918 67.2388 72.2947 66.3493 72.2947C64.9177 72.2947 64.1337 71.1162 64.0428 70.5716H70.5394ZM63.9827 68.9543C64.3593 67.3972 65.6108 66.9895 66.3493 66.9895C67.3443 66.9895 68.3829 67.6088 68.6094 68.9543H63.9827Z" fill="black"/>
<path d="M73.2338 73.8662H74.4671L76.0505 68.4259H76.0796L77.6486 73.8662H78.8837L81.9424 65.4768H79.8032L78.2643 70.6015H78.2352L76.8773 65.4768H75.282L73.9105 70.6015H73.8804L72.3588 65.4768H70.2188L73.2338 73.8662Z" fill="black"/>
<path fill-rule="evenodd" clip-rule="evenodd" d="M85.8164 73.8659H87.6536V72.8534C88.1493 73.4135 88.8605 74.1387 90.4731 74.1387C93.5309 74.1387 94.6314 71.3127 94.6314 69.6334C94.6314 67.414 92.9743 65.1892 90.4276 65.1892C89.4927 65.1892 88.5122 65.5386 87.8192 66.2346V62.6816H85.8164V73.8659ZM87.6982 69.5595C87.6982 68.3354 88.6477 67.0355 90.1848 67.0355C91.4518 67.0355 92.6278 68.0161 92.6278 69.6507C92.6278 71.2808 91.5272 72.2951 90.2157 72.2951C89.0406 72.2951 87.6982 71.4185 87.6982 69.5595Z" fill="black"/>
<path fill-rule="evenodd" clip-rule="evenodd" d="M103.992 65.477H102.152V66.5379H102.122C102.061 66.4157 101.051 65.1888 99.3503 65.1888C97.0301 65.1888 95.1602 67.0487 95.1602 69.6202C95.1602 72.4151 97.0747 74.1392 99.2302 74.1392C100.283 74.1392 101.52 73.5782 102.152 72.8265V73.8664H103.992V65.477ZM102.094 69.6512C102.094 71.2074 101.037 72.2947 99.6504 72.2947C98.2198 72.2947 97.1638 71.1308 97.1638 69.7105C97.1638 68.4562 98.0078 67.036 99.6504 67.036C100.842 67.036 102.094 67.9117 102.094 69.6512Z" fill="black"/>
<path d="M107.062 62.6824H105.059V73.8667H107.062V62.6824Z" fill="black"/>
<path fill-rule="evenodd" clip-rule="evenodd" d="M116.495 65.477H114.657V66.5379H114.626C114.565 66.4157 113.555 65.1888 111.854 65.1888C109.531 65.1888 107.664 67.0487 107.664 69.6202C107.664 72.4151 109.579 74.1392 111.733 74.1392C112.787 74.1392 114.022 73.5782 114.657 72.8265V73.8664H116.495V65.477ZM114.596 69.6512C114.596 71.2074 113.542 72.2947 112.155 72.2947C110.723 72.2947 109.669 71.1308 109.669 69.7105C109.669 68.4562 110.513 67.036 112.155 67.036C113.346 67.036 114.596 67.9117 114.596 69.6512Z" fill="black"/>
<path d="M117.566 73.8657H119.569V69.8758C119.569 69.1652 119.569 68.2886 119.932 67.7751C120.293 67.2168 120.943 67.0353 121.304 67.0353C122.991 67.0353 122.991 69.0311 122.991 69.7244V73.8657H124.996V69.3322C124.996 68.6809 124.996 67.277 124.226 66.3557C123.533 65.5083 122.434 65.189 121.71 65.189C120.443 65.189 119.752 65.8868 119.419 66.2043V65.4764H117.566V73.8657Z" fill="black"/>
<path d="M132.108 71.1312C131.58 71.9777 130.919 72.2951 130.256 72.2951C128.747 72.2951 127.738 71.1011 127.738 69.6653C127.738 67.9422 128.944 67.0355 130.164 67.0355C131.4 67.0355 131.868 67.8364 132.108 68.2587H134.37C133.511 65.6736 131.218 65.1892 130.164 65.1892C127.858 65.1892 125.734 67.0665 125.734 69.6334C125.734 72.4156 128.037 74.1387 130.18 74.1387C132.139 74.1387 133.69 73.0048 134.37 71.1312H132.108Z" fill="black"/>
<path fill-rule="evenodd" clip-rule="evenodd" d="M143.289 70.5706C143.349 70.2997 143.409 69.9513 143.409 69.559C143.409 67.4446 141.737 65.1431 139.085 65.1431C136.507 65.1431 134.684 67.3223 134.684 69.694C134.684 72.1414 136.613 74.1382 139.099 74.1382C141.057 74.1382 142.656 72.7343 143.138 71.2219H141.028C140.651 71.917 139.99 72.2937 139.099 72.2937C137.667 72.2937 136.884 71.1152 136.795 70.5706H143.289ZM136.734 68.9533C137.111 67.3962 138.361 66.9885 139.099 66.9885C140.095 66.9885 141.134 67.6079 141.359 68.9533H136.734Z" fill="black"/>
<path fill-rule="evenodd" clip-rule="evenodd" d="M88.112 46.0595L85.4335 50.6989L70.6075 49.8624L72.0919 47.2782L88.112 46.0595ZM98.8297 31.2767L100.173 36.3967L79.136 35.0102L80.6195 32.4269L98.8297 31.2767ZM84.8833 25.0008L97.1971 25.0099L98.1267 28.5109L83.4017 27.5841L84.8833 25.0008ZM83.8009 53.5841L81.6627 57.2712L66.3438 57.2876L67.8272 54.7052L83.8009 53.5841ZM110.696 43.6368L106.988 50.0832H110.52C112.156 50.0832 115.088 49.264 115.99 46.927C116.826 44.7551 115.29 43.634 114.218 43.634L110.696 43.6368ZM114.232 37.4704L117.313 37.4512C119.363 37.4403 121.501 36.4998 122.283 34.5915C123.005 32.821 122.035 31.3131 120.75 31.3186L117.77 31.315L114.232 37.4704ZM100.289 36.3967L103.399 30.9848L113.927 30.307L114.294 29.6502L104.556 28.967L106.833 25.0008L124.893 24.9999C130.446 24.9999 134.554 26.9912 132.957 32.8474C132.477 34.6216 130.22 39.0877 123.599 40.9586C125.005 41.1264 128.504 42.6817 127.901 46.7136C126.83 53.8633 117.6 57.2666 112.466 57.2684L91.1453 57.2785L90.0948 53.1417L101.262 52.3518L101.641 51.6968L89.529 50.957L88.2239 46.0531L105.458 45.0443L105.833 44.3948L74.8704 42.4354L76.3538 39.853L109.682 37.6829L110.059 37.0325L100.289 36.3967Z" fill="black"/>
</g>
<defs>
<clipPath id="clip0_1_16">
<rect width="140" height="100" fill="white" transform="translate(29)"/>
</clipPath>
</defs>
</svg>
