<svg width="197" height="100" viewBox="0 0 197 100" fill="none" xmlns="http://www.w3.org/2000/svg">
<g clip-path="url(#clip0_1_31)">
<path d="M169 0H29V100H169V0Z" fill="white"/>
<path d="M92.2026 50.7229C92.2026 55.6447 88.3644 59.2715 83.6541 59.2715C78.9437 59.2715 75.1055 55.6447 75.1055 50.7229C75.1055 45.7664 78.9437 42.1743 83.6541 42.1743C88.3644 42.1743 92.2026 45.7664 92.2026 50.7229ZM88.4605 50.7229C88.4605 47.6473 86.2359 45.5429 83.6541 45.5429C81.0722 45.5429 78.8476 47.6473 78.8476 50.7229C78.8476 53.7677 81.0722 55.9029 83.6541 55.9029C86.2359 55.9029 88.4605 53.7639 88.4605 50.7229Z" fill="black"/>
<path d="M110.55 50.7229C110.55 55.6447 106.712 59.2715 102.002 59.2715C97.2913 59.2715 93.4531 55.6447 93.4531 50.7229C93.4531 45.7703 97.2913 42.1743 102.002 42.1743C106.712 42.1743 110.55 45.7664 110.55 50.7229ZM106.808 50.7229C106.808 47.6473 104.584 45.5429 102.002 45.5429C99.4198 45.5429 97.1953 47.6473 97.1953 50.7229C97.1953 53.7677 99.4198 55.9029 102.002 55.9029C104.584 55.9029 106.808 53.7639 106.808 50.7229Z" fill="black"/>
<path d="M128.064 42.6876V57.9406C128.064 64.215 124.369 66.7776 120.001 66.7776C115.889 66.7776 113.415 64.0234 112.482 61.7711L115.725 60.4189C116.303 61.8017 117.718 63.4335 119.997 63.4335C122.793 63.4335 124.526 61.706 124.526 58.4539V57.232H124.396C123.562 58.2624 121.956 59.1625 119.928 59.1625C115.687 59.1625 111.801 55.4623 111.801 50.701C111.801 45.9052 115.687 42.1743 119.928 42.1743C121.952 42.1743 123.558 43.0745 124.396 44.0742H124.526V42.6914H128.064V42.6876ZM124.79 50.701C124.79 47.7094 122.797 45.5222 120.261 45.5222C117.691 45.5222 115.538 47.7094 115.538 50.701C115.538 53.662 117.691 55.8185 120.261 55.8185C122.797 55.8185 124.79 53.662 124.79 50.701Z" fill="black"/>
<path d="M133.901 33.834V58.8542H130.148V33.834H133.901Z" fill="black"/>
<path d="M147.99 53.5403L150.841 55.4828C149.921 56.8742 147.703 59.2715 143.871 59.2715C139.119 59.2715 135.57 55.5175 135.57 50.7229C135.57 45.6392 139.149 42.1743 143.46 42.1743C147.801 42.1743 149.925 45.7048 150.619 47.6126L150.999 48.5838L139.817 53.3168C140.673 55.0319 142.004 55.9068 143.871 55.9068C145.742 55.9068 147.039 54.9664 147.99 53.5403ZM139.214 50.4647L146.689 47.2927C146.278 46.2251 145.041 45.4812 143.585 45.4812C141.718 45.4812 139.119 47.1655 139.214 50.4647Z" fill="black"/>
<path d="M61.4568 48.6148V45.0257H73.6732C73.7926 45.6512 73.8543 46.3912 73.8543 47.1921C73.8543 49.8849 73.1107 53.2145 70.7144 55.5869C68.3837 57.9897 65.4057 59.2713 61.4607 59.2713C54.1486 59.2713 48 53.3747 48 46.1356C48 38.8965 54.1486 33 61.4607 33C65.5058 33 68.3875 34.5714 70.5526 36.6195L67.9946 39.1521C66.442 37.7104 64.3385 36.589 61.4568 36.589C56.1173 36.589 51.9411 40.8493 51.9411 46.1356C51.9411 51.4219 56.1173 55.6822 61.4568 55.6822C64.9203 55.6822 66.8928 54.3053 68.1564 53.0543C69.1811 52.0398 69.8553 50.5905 70.1212 48.611L61.4568 48.6148Z" fill="black"/>
</g>
<defs>
<clipPath id="clip0_1_31">
<rect width="140" height="100" fill="white" transform="translate(29)"/>
</clipPath>
</defs>
</svg>
