<svg width="197" height="100" viewBox="0 0 197 100" fill="none" xmlns="http://www.w3.org/2000/svg">
<g clip-path="url(#clip0_1_41)">
<path d="M168 0H28V100H168V0Z" fill="white"/>
<path d="M147.001 32.8471H130.523L131.538 30.001H147.001V32.8471Z" fill="#020202"/>
<path d="M103.071 30.001H118.372L119.377 32.8547H103.08C103.08 32.8547 103.066 30.001 103.071 30.001Z" fill="#020202"/>
<path d="M90.917 30C93.4386 30.2443 95.6307 31.1448 97.4986 32.8524H69.7656V30H90.917Z" fill="#020202"/>
<path d="M67.2698 30.0005H48.0039V32.8466H67.2698V30.0005Z" fill="#020202"/>
<path d="M147 38.1883H128.633C128.633 38.1883 129.638 35.3535 129.628 35.3535H147V38.1883Z" fill="#020202"/>
<path d="M121.265 38.1928H103.07V35.3555H120.269L121.265 38.1928Z" fill="#020202"/>
<path d="M99.6649 35.3535C100.031 36.2892 100.463 37.0889 100.463 38.1871H69.7773V35.3535H99.6649Z" fill="#020202"/>
<path d="M67.2699 35.3555H48.0039V38.1877H67.2699V35.3555Z" fill="#020202"/>
<path d="M126.754 43.542L127.762 40.6958L141.553 40.7008V43.5356L126.754 43.542Z" fill="#020202"/>
<path d="M122.147 40.6958L123.152 43.542H108.492V40.6958H122.147Z" fill="#020202"/>
<path d="M100.706 40.6958C100.719 41.659 100.582 42.6184 100.3 43.5394H91.8984V40.6958H100.706Z" fill="#020202"/>
<path d="M61.6522 40.7095H53.3711V43.5417H61.6522V40.7095Z" fill="#020202"/>
<path d="M83.6109 40.6958H75.3438V43.542H83.6109V40.6958Z" fill="#020202"/>
<path d="M116.635 46.6166C116.635 46.6166 116.635 48.7713 116.635 48.7751H108.492V45.9429H124.011L124.975 48.5874C124.975 48.5874 125.904 45.9429 125.905 45.9429H141.546V48.7751H133.442V46.6178L132.688 48.7751H117.384L116.635 46.6166Z" fill="#020202"/>
<path d="M75.3438 45.9429H99.0757C98.4599 47.0163 97.6633 47.975 96.7213 48.7764H75.3438V45.9429Z" fill="#020202"/>
<path d="M61.6522 45.9414H53.3711V48.7749H61.6522V45.9414Z" fill="#020202"/>
<path d="M141.549 51.2822H133.445V54.1145H141.549V51.2822Z" fill="#020202"/>
<path d="M116.635 51.2827H108.492V54.1176H116.637C116.637 54.1176 116.647 51.2827 116.635 51.2827Z" fill="#020202"/>
<path d="M131.804 51.2833C131.767 51.2833 130.854 54.1144 130.816 54.1156H119.273C119.265 54.1156 118.259 51.2745 118.258 51.2783L131.804 51.2833Z" fill="#020202"/>
<path d="M75.3463 51.2822H96.6825C97.6559 52.1068 98.5118 53.0609 99.2266 54.1183H75.3438L75.3463 51.2822Z" fill="#020202"/>
<path d="M61.6566 54.1182V51.2847H53.3906V54.117L61.6566 54.1182Z" fill="#020202"/>
<path d="M141.548 56.6226H133.445V59.4561H141.548V56.6226Z" fill="#020202"/>
<path d="M116.636 56.6226H108.492V59.4549H116.636V56.6226Z" fill="#020202"/>
<path d="M128.919 59.4712C128.919 59.4585 129.918 56.6226 129.935 56.625H120.121C120.105 56.625 121.127 59.4585 121.127 59.4585C121.127 59.4585 128.918 59.4825 128.919 59.4712Z" fill="#020202"/>
<path d="M75.3438 59.4561V56.6226H83.7329C83.7329 56.6226 83.7404 59.4573 83.7329 59.4573C83.7253 59.4573 75.3438 59.4535 75.3438 59.4561Z" fill="#020202"/>
<path d="M100.401 56.6226C100.807 57.4764 100.847 58.4927 100.927 59.4687H92.0391V56.6226H100.401Z" fill="#020202"/>
<path d="M61.6566 56.6226H53.3906V59.4549H61.6566V56.6226Z" fill="#020202"/>
<path d="M147.001 61.8545H133.445V64.688H147.001V61.8545Z" fill="#020202"/>
<path d="M116.638 61.8545H103.07V64.688H116.638V61.8545Z" fill="#020202"/>
<path d="M127.096 64.6893H122.958L121.965 61.8545H128.054L127.096 64.6893Z" fill="#020202"/>
<path d="M48.0039 61.8555V64.6878H67.256C67.2635 64.6878 67.2472 61.8568 67.256 61.8568L48.0039 61.8555Z" fill="#020202"/>
<path d="M100.573 61.8555C100.371 62.7899 100.185 63.9297 99.5035 64.6891H69.7656V61.8555H100.573Z" fill="#020202"/>
<path d="M125.223 70.0349H124.842L123.875 67.1963H126.216L125.223 70.0349Z" fill="#020202"/>
<path d="M147.001 67.1963H133.445V70.0424H147.001V67.1963Z" fill="#020202"/>
<path d="M69.7656 70.0364V67.2017H97.6609C95.7929 68.9912 93.2311 69.9999 90.4708 70.0402H69.7694" fill="#020202"/>
<path d="M116.638 67.1963H103.07V70.0424H116.638V67.1963Z" fill="#020202"/>
<path d="M67.2544 67.2152C67.2544 67.2152 67.2455 70.0425 67.2544 70.0425C67.2632 70.0425 48.0073 70.0539 48.0022 70.0425C47.9972 70.0312 48.0022 67.2026 48.0022 67.2026C48.0022 67.2026 67.2455 67.2152 67.2544 67.2152Z" fill="#020202"/>
</g>
<defs>
<clipPath id="clip0_1_41">
<rect width="140" height="100" fill="white" transform="translate(28)"/>
</clipPath>
</defs>
</svg>
