<svg width="197" height="100" viewBox="0 0 197 100" fill="none" xmlns="http://www.w3.org/2000/svg">
<g clip-path="url(#clip0_1_82)">
<path d="M169 0H29V100H169V0Z" fill="white"/>
<path d="M51.6575 47.6992V53.2323C51.6575 53.6762 51.6871 54.0016 51.7759 54.1496C51.8055 54.2384 51.9238 54.2975 52.131 54.3271C52.3085 54.4159 52.6932 54.4751 53.2849 54.5047C53.8471 54.5342 54.646 54.5934 55.6521 54.5934V54.8301H45V54.5934C45.8285 54.5934 46.5386 54.5638 47.0712 54.5047C47.6038 54.4751 47.9885 54.3863 48.166 54.3271C48.3436 54.268 48.4619 54.1792 48.5211 54.1496C48.6099 54.0312 48.6395 53.7353 48.6395 53.2323V40.5682C48.6395 40.1244 48.6099 39.8285 48.5211 39.6805C48.4915 39.5918 48.4027 39.5622 48.2252 39.503C47.7814 39.3255 46.657 39.2367 45.0296 39.2367V39H54.5869C56.5397 39 58.0784 39.4438 59.2027 40.3315C60.2679 41.16 60.8005 42.2844 60.8005 43.6455C60.8005 44.5627 60.3863 45.4504 59.5874 46.2197C58.5518 47.1666 57.1907 47.64 55.4745 47.64H51.6575V47.6992ZM51.6575 47.4625H54.143C55.5041 47.4625 56.4805 47.1074 57.0132 46.3973C57.4866 45.7759 57.6937 44.829 57.6937 43.4975C57.6937 42.0773 57.3978 41.0416 56.7764 40.3315C56.1551 39.5918 55.2378 39.2663 53.9359 39.2663H52.7523C52.3973 39.2663 52.131 39.2959 51.983 39.3551C51.8351 39.3847 51.7167 39.503 51.6871 39.651C51.6871 39.7989 51.6575 40.0948 51.6575 40.5978V47.4625Z" fill="black"/>
<path d="M63.5819 49.8C63.5819 51.5457 63.7595 52.8477 64.2033 53.617C64.6175 54.4159 65.2685 54.8005 66.1266 54.8005C67.0438 54.8005 67.8132 54.5047 68.4937 53.8833C69.3222 53.1436 69.766 52.1375 69.766 50.8652H69.9436C69.9436 52.0784 69.5589 53.114 68.76 53.8833C67.9611 54.6822 66.9255 55.0668 65.6236 55.0668C64.5288 55.0668 63.5227 54.6526 62.6351 53.7945C61.5699 52.7885 61.0373 51.5457 61.0373 49.9479C61.0373 48.2318 61.5699 46.8115 62.6055 45.7463C63.5227 44.829 64.5584 44.326 65.7123 44.326C66.7775 44.326 67.6652 44.6219 68.3458 45.2433C69.3814 46.1605 69.914 47.64 69.914 49.7408H63.6115V49.8H63.5819ZM67.7836 49.5337C67.7836 47.9359 67.6356 46.7523 67.3693 45.8942C67.103 45.0657 66.6296 44.6219 66.0082 44.6219C65.1206 44.6219 64.4696 45.0066 64.1441 45.8055C63.7595 46.6044 63.6115 47.8175 63.6115 49.5041H67.7836V49.5337Z" fill="black"/>
<path d="M75.1512 48.8532V53.7058C75.1512 54.0608 75.1808 54.2384 75.24 54.3567C75.2696 54.3863 75.3584 54.4751 75.4767 54.5047C75.5951 54.5342 75.8318 54.5934 76.1277 54.623C76.4236 54.6526 76.749 54.6526 76.9562 54.6526V54.8893H70.6833V54.6526C71.0384 54.6526 71.423 54.6526 71.7485 54.623C72.1036 54.5934 72.3995 54.5047 72.6953 54.4455C72.8137 54.3567 72.8433 54.1496 72.8433 53.7058V46.2197C72.8433 46.0718 72.8433 45.9238 72.8433 45.7759C72.8433 45.628 72.8137 45.5096 72.7249 45.4208L72.577 45.1841C72.429 45.0658 71.7781 45.0066 70.7129 45.0066V44.7699L75.1512 44.3852V47.5216C75.2696 46.8411 75.4471 46.1901 75.8022 45.6575C76.246 44.8882 76.749 44.5036 77.2521 44.4444C77.7551 44.4148 78.0805 44.3556 78.2581 44.3556C79.2937 44.3556 80.0926 44.6515 80.714 45.3025C81.217 45.8351 81.4833 46.4564 81.4833 47.1666V53.7058C81.4833 54.0608 81.5129 54.2384 81.5721 54.3567C81.6016 54.3863 81.6904 54.4751 81.8088 54.5047C81.9271 54.5342 82.1934 54.5934 82.5485 54.623C82.9036 54.6526 83.229 54.6526 83.5545 54.6526V54.8893H77.2521V54.6526C77.5184 54.6526 77.8142 54.6526 78.1693 54.623C78.5244 54.5934 78.8203 54.5047 79.0866 54.4455C79.2049 54.3567 79.2345 54.1496 79.2345 53.7058V47.4329C79.2345 46.634 79.1458 46.0718 79.057 45.628C78.8203 44.9474 78.4356 44.5923 77.8734 44.5923C77.1041 44.5923 76.5123 45.0362 76.0389 46.0126C75.5655 46.7523 75.2992 47.6992 75.1512 48.8532Z" fill="black"/>
<path d="M90.9222 49.6521V50.806C90.9222 51.1907 90.9222 51.5458 90.9518 51.8712C90.9518 53.0252 90.8334 53.8241 90.5671 54.2384C90.212 54.8006 89.5019 55.126 88.4663 55.126C87.4603 55.126 86.7501 54.8893 86.2767 54.3863C85.8329 53.9129 85.5962 53.2323 85.5962 52.3743V45.3912H83.6433V45.1545C84.9748 44.7995 86.0104 44.0597 86.6909 42.817C87.2236 41.811 87.5194 40.7162 87.5194 39.503H87.9337V44.7107H90.7742V45.4504H87.9337V52.1375C87.9337 53.0252 87.9633 53.5874 88.052 53.8537C88.2 54.4751 88.5847 54.771 89.1173 54.771C89.7682 54.771 90.212 54.4159 90.4192 53.7058C90.5671 53.2027 90.6559 52.2855 90.6559 50.9244V49.7408H90.8926V49.6521H90.9222Z" fill="black"/>
<path d="M97.9052 47.7288V46.2789C97.9052 45.6279 97.7869 45.1841 97.6093 44.9474C97.4318 44.7107 96.9584 44.5923 96.2778 44.5923C95.7156 44.5923 95.2126 44.7107 94.7984 44.9474C94.3841 45.1841 94.1178 45.4504 93.9699 45.8351C94.0586 45.8351 94.1178 45.8055 94.2066 45.8055C94.5025 45.8055 94.7688 45.9238 94.9759 46.1901C95.1534 46.4268 95.2718 46.7227 95.2718 47.0186C95.2718 47.3737 95.1534 47.6696 94.8871 47.9063C94.6504 48.143 94.3545 48.2614 93.9995 48.2614C93.7627 48.2614 93.5852 48.1726 93.4373 48.1134C92.9342 47.8175 92.6975 47.4329 92.6975 46.9299C92.6975 46.6932 92.7271 46.4269 92.8455 46.131C93.0822 45.48 93.6444 45.0362 94.5616 44.7107C95.2126 44.474 95.8932 44.4148 96.5441 44.4148C97.7573 44.4148 98.6745 44.6515 99.2959 45.0953C99.8581 45.5096 100.124 46.0126 100.124 46.634V52.0488C100.124 53.0548 100.154 53.6466 100.213 53.8833C100.332 54.4455 100.627 54.7118 101.101 54.7118C101.515 54.7118 101.841 54.4751 101.989 54.0608C102.136 53.617 102.225 52.9956 102.225 52.1375C102.225 51.9008 102.225 51.6937 102.225 51.457C102.225 51.2203 102.225 51.0132 102.225 50.7173V50.4805H102.521V51.5458C102.521 51.9008 102.521 52.2263 102.551 52.5518C102.551 53.4986 102.432 54.1496 102.196 54.4751C101.9 54.8893 101.278 55.0964 100.391 55.0964C99.651 55.0964 99.1775 54.9781 98.8225 54.7118C98.4082 54.4159 98.1419 53.9129 98.0236 53.2323C97.6685 54.0312 97.1359 54.5638 96.4553 54.8301C96.0411 54.9781 95.5085 55.0669 94.7984 55.0669C94.1178 55.0669 93.4964 54.9189 92.9934 54.5638C92.3129 54.12 91.9282 53.469 91.9282 52.5518C91.9282 51.6641 92.2833 50.8948 92.9638 50.303C93.6444 49.7408 94.5025 49.3858 95.4493 49.297C96.4553 49.2082 97.1063 49.0603 97.4318 48.9123C97.7277 48.7644 97.9052 48.3501 97.9052 47.7288ZM97.846 52.1967V48.9123C97.6685 49.1786 97.343 49.3266 96.9584 49.4153C96.5737 49.5041 96.189 49.5337 95.8636 49.5633C95.4197 49.6816 95.0351 49.9479 94.7096 50.3622C94.3545 50.8652 94.2066 51.5458 94.2066 52.4334C94.2066 53.3803 94.2953 54.0312 94.4729 54.3863C94.6504 54.7414 94.9759 54.8893 95.3605 54.8893C95.9819 54.8893 96.5441 54.623 97.0471 54.12C97.5797 53.5578 97.846 52.9364 97.846 52.1967Z" fill="black"/>
<path d="M105.273 50.7173C104.74 50.451 104.356 50.0959 104.06 49.6816C103.764 49.2674 103.616 48.7348 103.616 48.1134C103.616 47.0778 104.06 46.1605 105.036 45.4504C105.924 44.7699 106.871 44.4444 107.906 44.4444C108.202 44.4444 108.557 44.474 108.912 44.5627C109.267 44.6515 109.563 44.7403 109.859 44.8586V44.2964C109.859 43.5271 110.007 43.0241 110.273 42.7578C110.54 42.5211 110.954 42.4027 111.487 42.4027C111.723 42.4027 111.93 42.4915 112.138 42.669C112.315 42.817 112.404 43.0537 112.404 43.32C112.404 43.8822 112.138 44.2077 111.605 44.2077C111.043 44.2077 110.776 43.9414 110.776 43.4088C110.776 43.2904 110.776 43.2312 110.806 43.1425C110.836 43.0537 110.895 42.9945 110.924 42.8762C110.569 42.9058 110.392 43.0537 110.273 43.2904C110.155 43.5271 110.126 43.8526 110.126 44.2373C110.126 44.5923 110.155 44.8586 110.155 45.0066C110.806 45.3025 111.309 45.7463 111.694 46.2197C112.078 46.7227 112.226 47.3145 112.226 47.9655C112.226 48.9715 111.783 49.8 110.806 50.4214C109.978 50.9836 109.001 51.309 107.936 51.309C107.167 51.309 106.486 51.1907 105.806 50.9244C105.243 50.9244 104.77 51.0132 104.444 51.1907C104.001 51.4274 103.764 51.8417 103.764 52.4038C103.764 52.6406 103.941 52.8181 104.385 52.966C104.77 53.114 105.539 53.2027 106.664 53.2027H108.084C109.534 53.2027 110.658 53.3803 111.398 53.7649C112.345 54.2679 112.818 55.0669 112.818 56.2208C112.818 57.434 112.404 58.3512 111.516 59.0022C110.629 59.6532 109.534 60.0082 108.143 60.0082C106.486 60.0082 105.155 59.7419 104.178 59.1797C103.172 58.6471 102.699 57.9962 102.699 57.3156C102.699 56.8718 102.965 56.4871 103.498 56.1616C103.882 55.9249 104.444 55.7474 105.243 55.5107C104.504 55.2444 103.971 54.9781 103.646 54.6822C103.202 54.2679 102.906 53.7353 102.906 53.0844C102.906 52.4038 103.083 51.8121 103.527 51.3978C103.941 50.8948 104.504 50.7173 105.273 50.7173ZM108.202 59.8011C109.297 59.8011 110.155 59.5644 110.776 59.1205C111.398 58.6767 111.694 58.0849 111.694 57.434C111.694 56.6351 111.427 56.1025 110.924 55.8362C110.421 55.5699 109.504 55.4219 108.173 55.4219C106.634 55.4219 105.569 55.5995 105.007 55.9545C104.563 56.2504 104.267 56.7534 104.267 57.4932C104.267 58.1737 104.444 58.7063 104.829 59.0614C105.51 59.5348 106.604 59.8011 108.202 59.8011ZM109.978 47.8767C109.978 46.8411 109.83 46.0422 109.563 45.5392C109.267 44.9178 108.676 44.6219 107.877 44.6219C107.137 44.6219 106.604 44.9178 106.279 45.5096C105.924 46.0718 105.776 46.8707 105.776 47.8767C105.776 49.0307 105.924 49.8592 106.19 50.3622C106.456 50.8652 107.019 51.1019 107.877 51.1019C108.646 51.1019 109.149 50.8356 109.475 50.3326C109.83 49.8 109.978 49.0011 109.978 47.8767Z" fill="black"/>
<path d="M116.043 46.0126C116.043 45.6575 116.014 45.48 115.925 45.3912C115.807 45.2433 115.688 45.1249 115.629 45.0953C115.333 45.0066 114.682 44.977 113.617 44.977V44.7403L118.351 44.3556V47.4921C118.44 46.8115 118.647 46.1901 119.032 45.5688C119.564 44.7699 120.245 44.3556 121.044 44.3556C121.34 44.3556 121.695 44.474 122.05 44.6515C122.405 44.829 122.671 45.0953 122.79 45.4208C122.908 45.7167 122.967 45.983 122.967 46.2493C122.967 46.9003 122.701 47.3441 122.168 47.5808C122.05 47.6696 121.872 47.6992 121.636 47.6992C121.281 47.6992 121.014 47.5808 120.807 47.3441C120.57 47.1074 120.452 46.7819 120.452 46.3085C120.452 46.0126 120.57 45.7463 120.807 45.4208C121.044 45.1249 121.31 45.0066 121.576 45.0658C121.458 44.7107 121.192 44.5332 120.689 44.5332C120.245 44.5332 119.742 44.8882 119.269 45.5688C118.647 46.4564 118.351 47.5808 118.351 49.0011V53.5874C118.351 53.9425 118.381 54.12 118.44 54.2384C118.47 54.2679 118.558 54.3567 118.677 54.3863C119.032 54.5047 119.742 54.5638 120.807 54.5638V54.8005H113.617V54.5638C114.061 54.5638 114.534 54.5638 114.919 54.5343C115.304 54.5047 115.659 54.4159 115.925 54.3567C116.043 54.2679 116.073 54.0608 116.073 53.617V46.0126H116.043Z" fill="black"/>
<path d="M129.654 47.7288V46.2789C129.654 45.6279 129.536 45.1841 129.358 44.9474C129.181 44.7107 128.707 44.5923 128.027 44.5923C127.465 44.5923 126.962 44.7107 126.547 44.9474C126.133 45.1841 125.867 45.4504 125.719 45.8351C125.808 45.8351 125.867 45.8055 125.956 45.8055C126.251 45.8055 126.518 45.9238 126.725 46.1901C126.902 46.4268 127.021 46.7227 127.021 47.0186C127.021 47.3737 126.902 47.6696 126.636 47.9063C126.399 48.143 126.103 48.2614 125.748 48.2614C125.512 48.2614 125.334 48.1726 125.186 48.1134C124.683 47.8175 124.447 47.4329 124.447 46.9299C124.447 46.6932 124.476 46.4269 124.594 46.131C124.831 45.48 125.393 45.0362 126.311 44.7107C126.962 44.474 127.642 44.4148 128.293 44.4148C129.506 44.4148 130.424 44.6515 131.045 45.0953C131.607 45.5096 131.873 46.0126 131.873 46.634V52.0488C131.873 53.0548 131.903 53.6466 131.962 53.8833C132.081 54.4455 132.376 54.7118 132.85 54.7118C133.264 54.7118 133.59 54.4751 133.738 54.0608C133.885 53.617 133.974 52.9956 133.974 52.1375C133.974 51.9008 133.974 51.6937 133.974 51.457C133.974 51.2203 133.974 51.0132 133.974 50.7173V50.4805H134.27V51.5458C134.27 51.9008 134.27 52.2263 134.3 52.5518C134.3 53.4986 134.181 54.1496 133.945 54.4751C133.649 54.8893 133.027 55.0964 132.14 55.0964C131.4 55.0964 130.927 54.9781 130.571 54.7118C130.157 54.4159 129.891 53.9129 129.773 53.2323C129.418 54.0312 128.885 54.5638 128.204 54.8301C127.79 54.9781 127.257 55.0669 126.547 55.0669C125.867 55.0669 125.245 54.9189 124.742 54.5638C124.062 54.12 123.677 53.469 123.677 52.5518C123.677 51.6641 124.032 50.8948 124.713 50.303C125.393 49.7408 126.251 49.3858 127.198 49.297C128.204 49.2082 128.855 49.0603 129.181 48.9123C129.506 48.7644 129.654 48.3501 129.654 47.7288ZM129.565 52.1967V48.9123C129.388 49.1786 129.062 49.3266 128.678 49.4153C128.293 49.5041 127.908 49.5337 127.583 49.5633C127.139 49.6816 126.754 49.9479 126.429 50.3622C126.074 50.8652 125.926 51.5458 125.926 52.4334C125.926 53.3803 126.015 54.0312 126.192 54.3863C126.37 54.7414 126.695 54.8893 127.08 54.8893C127.701 54.8893 128.264 54.623 128.767 54.12C129.358 53.5578 129.565 52.9364 129.565 52.1967Z" fill="black"/>
<path d="M145.129 47.3441C145.248 46.5748 145.425 46.0126 145.692 45.5392C146.106 44.8586 146.638 44.4444 147.378 44.3556C147.496 44.3556 147.615 44.3556 147.763 44.326C147.911 44.326 147.999 44.2964 148.059 44.2964C149.065 44.2964 149.893 44.5923 150.455 45.2433C150.958 45.7759 151.225 46.3973 151.225 47.1074V53.6466C151.225 53.9425 151.254 54.1792 151.313 54.268C151.343 54.3567 151.432 54.3863 151.55 54.4455C151.669 54.4751 151.905 54.5343 152.201 54.5638C152.497 54.5934 152.763 54.5934 153 54.5934V54.8301H147.201V54.5934C147.585 54.5934 147.881 54.5934 148.118 54.5638C148.355 54.5343 148.562 54.4455 148.798 54.3271C148.917 54.2384 148.946 54.0312 148.946 53.6466V47.4033C148.946 46.634 148.858 46.0422 148.769 45.5984C148.532 44.9178 148.147 44.5627 147.615 44.5627C147.053 44.5627 146.55 44.829 146.165 45.3617C145.751 45.983 145.396 47.0778 145.159 48.6756V53.617C145.159 53.9721 145.188 54.1496 145.248 54.268C145.277 54.2975 145.366 54.3567 145.484 54.4159C145.603 54.4455 145.78 54.5047 146.106 54.5343C146.402 54.5638 146.668 54.623 146.934 54.623V54.8597H141.076V54.623C141.697 54.623 142.17 54.5934 142.525 54.4455L142.703 54.3567C142.821 54.268 142.851 54.0608 142.851 53.617V47.3737C142.851 46.5748 142.762 46.0126 142.673 45.5688C142.437 44.8882 142.052 44.5332 141.49 44.5332C140.75 44.5332 140.188 44.977 139.774 45.9534C139.507 46.6044 139.271 47.5512 139.123 48.794V53.6466C139.123 54.0017 139.152 54.1792 139.212 54.2975C139.241 54.3271 139.33 54.4159 139.448 54.4455C139.567 54.4751 139.803 54.5343 140.099 54.5638C140.395 54.5934 140.661 54.5934 140.898 54.5934V54.8301H134.625V54.5934C134.98 54.5934 135.306 54.5934 135.661 54.5638C136.016 54.5343 136.312 54.4455 136.608 54.3863C136.726 54.2975 136.756 54.0904 136.756 53.6466V46.1901C136.756 46.0422 136.756 45.8943 136.756 45.7463C136.756 45.5984 136.726 45.48 136.637 45.3912C136.519 45.2433 136.401 45.1249 136.341 45.0954C136.105 45.0066 135.542 44.977 134.655 44.977V44.7995L139.093 44.3852V47.5217C139.212 46.7227 139.389 46.1014 139.626 45.6575C140.01 44.8882 140.573 44.474 141.312 44.3852C141.46 44.3852 141.608 44.3556 141.727 44.3556C141.845 44.3556 141.963 44.3556 141.993 44.3556C143.058 44.3556 143.827 44.6515 144.39 45.2433C144.863 45.7759 145.129 46.486 145.129 47.3441Z" fill="black"/>
</g>
<defs>
<clipPath id="clip0_1_82">
<rect width="140" height="100" fill="white" transform="translate(29)"/>
</clipPath>
</defs>
</svg>
