<svg width="197" height="100" viewBox="0 0 197 100" fill="none" xmlns="http://www.w3.org/2000/svg">
<g clip-path="url(#clip0_1_95)">
<path d="M169 0H29V100H169V0Z" fill="white"/>
<path fill-rule="evenodd" clip-rule="evenodd" d="M109.356 35.2983L98.2007 63.7856H96.3555L107.51 35.2983H109.356Z" fill="black"/>
<path fill-rule="evenodd" clip-rule="evenodd" d="M33 35.1655H61.5281V64.1476H33V35.1655Z" fill="black"/>
<path fill-rule="evenodd" clip-rule="evenodd" d="M155.086 53.6205L151.919 43.5988L148.718 53.6205H155.086ZM155.154 35.7845L164.863 63.5296H158.077L156.407 58.3315H147.394L145.759 63.5296H138.974L148.648 35.7845H155.154ZM134.973 48.4599V63.5288H130.101V60.9492C129.428 61.9458 128.65 62.6809 127.769 63.1546C126.888 63.6282 125.994 63.9531 125.09 64.1265C124.648 64.2019 124.213 64.2576 123.784 64.2957C123.355 64.333 122.944 64.3507 122.548 64.3507L122.2 64.3894C122.178 64.3633 122.16 64.3507 122.148 64.3507H122.097C121.586 64.3507 120.763 64.3013 119.626 64.2019C118.489 64.1012 117.294 63.753 116.041 63.1546C114.395 62.3574 112.893 60.9422 111.535 58.9109C110.178 56.8796 109.499 53.7693 109.499 49.5819C109.499 45.2445 110.595 41.7296 112.788 39.0379C114.979 36.3462 118.419 35 123.106 35H123.452C126.122 35 128.209 35.5173 129.718 36.552C131.225 37.5867 132.349 38.7144 133.092 39.9358C133.741 41.0325 134.176 42.0545 134.397 43.0025C134.617 43.9505 134.739 44.5481 134.763 44.7969H128.047C128.001 43.7003 127.601 42.7029 126.847 41.8057C126.093 40.9085 124.892 40.4475 123.246 40.4222C121.251 40.4475 119.784 40.9952 118.844 42.0672C117.903 43.1392 117.261 44.3113 116.912 45.5821C116.711 46.3414 116.577 47.1172 116.512 47.9003C116.46 48.5222 116.431 49.146 116.425 49.7701C116.425 52.8854 117.012 55.1239 118.183 56.4821C119.355 57.8396 120.636 58.6311 122.028 58.8552C122.199 58.9028 122.373 58.9341 122.55 58.949C122.712 58.963 122.874 58.968 123.037 58.968C124.8 58.9186 126.179 58.3569 127.177 57.2856C128.175 56.2136 128.72 54.9533 128.813 53.5085H123.662V48.4606H134.973V48.4599ZM75.3636 48.2357H80.6878C81.6136 48.2182 82.519 47.9605 83.3153 47.4879C84.1153 47.0143 84.5163 46.1044 84.5163 44.7582C84.5163 43.3119 84.116 42.3526 83.3153 41.879C82.5146 41.4054 81.5342 41.1686 80.3748 41.1686H75.3643V48.2357H75.3636ZM68.9258 35.7845H82.497C85.6285 35.7845 87.8325 36.5767 89.1082 38.159C90.3839 39.7413 91.0225 41.5802 91.0225 43.6742C91.0225 45.494 90.6743 46.9206 89.9786 47.9552C89.283 48.9899 88.5176 49.7321 87.6816 50.1803C87.5195 50.2797 87.3631 50.3608 87.2122 50.4228C87.0614 50.4848 86.9162 50.5412 86.7774 50.5905V50.7033C88.1461 51.1022 89.068 51.781 89.5438 52.7409C90.0195 53.7009 90.3036 54.7165 90.3966 55.7886C90.4434 56.3356 90.4665 56.8845 90.4657 57.4336C90.4889 59.1033 90.5404 60.3191 90.6221 61.0803C90.7032 61.8401 90.9069 62.5062 91.2311 63.0806C91.2544 63.1546 91.2889 63.2293 91.3354 63.3047C91.3812 63.3787 91.4284 63.4534 91.4743 63.5288H84.9322C84.5607 62.9551 84.3119 62.2813 84.1836 61.5095C84.0561 60.7371 83.9694 59.4402 83.9229 57.6204C83.9229 57.4963 83.9172 57.3589 83.9059 57.2088C83.8948 57.0718 83.8891 56.9345 83.889 56.7971C83.8218 55.9326 83.5277 55.1011 83.0362 54.3867C82.5372 53.6501 81.4299 53.2829 79.713 53.2829H75.3636V63.5288H68.9258V35.7845Z" fill="black"/>
</g>
<defs>
<clipPath id="clip0_1_95">
<rect width="140" height="100" fill="white" transform="translate(29)"/>
</clipPath>
</defs>
</svg>
