<svg width="197" height="100" viewBox="0 0 197 100" fill="none" xmlns="http://www.w3.org/2000/svg">
<g clip-path="url(#clip0_1_102)">
<path d="M168 0H28V100H168V0Z" fill="white"/>
<path d="M42.9821 61.6301H38.2343V49.9821H35V46.1897H38.2342V43.4912C38.2342 40.2934 39.6646 38 44.3996 38C45.401 38 46.9733 38.1987 46.9733 38.1987V41.7201H45.3219C43.6393 41.7201 42.9824 42.2238 42.9824 43.6163V46.1897H46.9103L46.5605 49.9821H42.9822L42.9821 61.6301ZM53.8761 45.8867C53.8069 45.8867 53.7357 45.8891 53.6653 45.8909C49.2628 45.8909 47.2486 49.1499 47.2486 53.7762C47.2486 59.604 49.8613 61.9365 53.6997 61.9365C55.8957 61.9365 57.3385 61.0268 58.2155 59.3292V61.6317H62.7313V46.1913H58.2155V48.5659C57.4994 47.0381 56.0163 45.9048 53.8761 45.8867ZM55.0243 49.5352C56.8733 49.5352 57.9832 50.8045 57.9832 52.9635L57.9874 55.1686C57.9874 56.6238 57.0708 58.3262 55.0243 58.3262C51.8781 58.3262 51.9621 54.9828 51.9621 53.8693C51.9621 50.1236 53.6384 49.5352 55.0243 49.5352ZM64.5551 53.9123C64.5551 52.0361 64.4638 45.8967 72.5913 45.8967C75.8539 45.8967 77.2162 46.9176 77.2162 46.9176L76.1212 50.2598C76.1212 50.2598 74.7607 49.5225 72.9879 49.5225C70.7172 49.5225 69.2683 50.818 69.2683 53.0973L69.2709 54.7316C69.2709 56.9217 70.6688 58.3837 72.9925 58.3837C74.6076 58.3837 76.0962 57.6395 76.0962 57.6395L77.1883 60.9119C77.1883 60.9119 75.9427 61.9392 72.6141 61.9392C64.8755 61.9392 64.5552 56.4311 64.5552 53.9123H64.5551ZM103.694 45.8909C108.097 45.8909 110.143 49.1499 110.143 53.7762C110.143 59.604 107.53 61.9365 103.691 61.9365C101.495 61.9365 99.8721 61.027 98.9952 59.3292V61.6317L94.5361 61.63V38.4695L99.2705 38.0631V48.3567C99.9538 46.5558 102.199 45.8909 103.694 45.8909H103.694ZM102.367 49.5352C100.518 49.5352 99.2705 50.8045 99.2705 52.9635L99.266 55.1686C99.2633 56.6238 100.13 58.3262 102.367 58.3262C105.513 58.3262 105.429 54.9828 105.429 53.8693C105.429 50.1236 103.753 49.5352 102.367 49.5352ZM85.4306 45.9037C80.4372 45.9037 77.8011 48.583 77.8011 53.3444V54.229C77.8011 60.4089 81.5031 62 85.9166 62C90.2065 62 92.1483 60.8191 92.1483 60.8191L91.2624 57.6744C91.2624 57.6744 88.9783 58.6309 86.4842 58.6309C83.8987 58.6309 82.7868 57.9823 82.5017 55.537H92.5268V53.0142C92.5268 47.8492 89.5682 45.9035 85.4305 45.9035L85.4306 45.9037ZM85.5509 49.0526C87.2794 49.0526 88.3994 50.0957 88.3379 52.5148H82.5104C82.6115 49.9687 83.8193 49.0527 85.5509 49.0527V49.0526ZM119.583 45.8824C114.455 45.8824 111.755 48.7263 111.755 53.8227C111.755 60.8152 116.409 61.9407 119.591 61.9407C124.25 61.9407 127.35 59.4722 127.35 53.8862C127.35 48.0721 123.865 45.8824 119.583 45.8824ZM119.518 49.5478C121.773 49.5478 122.666 51.2086 122.666 53.099V54.7243C122.666 57.0144 121.416 58.339 119.51 58.339C117.727 58.339 116.473 57.0999 116.473 54.7243V53.099C116.473 50.5654 117.965 49.5478 119.518 49.5478ZM136.782 45.8824C131.654 45.8824 128.954 48.7263 128.954 53.8227C128.954 60.8152 133.608 61.9407 136.79 61.9407C141.449 61.9407 144.549 59.4722 144.549 53.8862C144.549 48.0721 141.063 45.8824 136.782 45.8824ZM136.717 49.5478C138.972 49.5478 139.865 51.2086 139.865 53.099V54.7243C139.865 57.0144 138.615 58.339 136.708 58.339C134.925 58.339 133.672 57.0999 133.672 54.7243V53.099C133.672 50.5654 135.163 49.5478 136.717 49.5478ZM146.338 61.6301V38.4695L151.086 38.0632V53.5869L155.796 46.1898H160.811L155.897 53.8511L161 61.6301H155.971L151.086 54.0766V61.6301H146.338Z" fill="black"/>
</g>
<defs>
<clipPath id="clip0_1_102">
<rect width="140" height="100" fill="white" transform="translate(28)"/>
</clipPath>
</defs>
</svg>
